<svg width="66" height="21" viewBox="0 0 66 21" fill="none" xmlns="http://www.w3.org/2000/svg">
<path d="M10.9 1.456H11.134C11.854 1.456 12.508 1.876 13.096 2.716C13.216 2.992 13.276 3.184 13.276 3.292C13.192 3.592 13.048 3.742 12.844 3.742C12.736 3.742 12.322 3.376 11.602 2.644C11.374 2.488 11.092 2.41 10.756 2.41C10.12 2.41 9.22 2.818 8.056 3.634C6.556 5.002 5.656 5.932 5.356 6.424C3.016 9.496 1.846 12.352 1.846 14.992C1.846 17.344 2.5 18.904 3.808 19.672C4.408 19.96 5.056 20.104 5.752 20.104C7.552 20.104 9.586 19.27 11.854 17.602C12.73 16.822 13.252 16.222 13.42 15.802C13.624 15.442 13.81 15.262 13.978 15.262L14.05 15.37V15.442C14.05 16.186 13.126 17.266 11.278 18.682C9.142 20.05 7.276 20.734 5.68 20.734H5.248C3.592 20.734 2.362 19.924 1.558 18.304C1.138 17.296 0.928 16.282 0.928 15.262V14.596C0.928 11.524 2.302 8.374 5.05 5.146C7.462 2.686 9.412 1.456 10.9 1.456ZM14.1664 11.716L14.2384 11.662C14.9464 11.134 15.3964 10.72 15.5884 10.42C14.9284 10.504 14.4544 10.936 14.1664 11.716ZM15.8224 11.554C15.7744 11.53 15.7324 11.518 15.6964 11.518C15.6124 11.518 15.4384 11.638 15.1744 11.878C14.4544 12.478 13.9684 12.778 13.7164 12.778C13.3924 12.778 13.2304 12.538 13.2304 12.058C13.2304 11.734 13.3684 11.356 13.6444 10.924C13.8964 10.54 14.1904 10.204 14.5264 9.916C14.9224 9.568 15.2944 9.394 15.6424 9.394C16.0264 9.394 16.2544 9.544 16.3264 9.844C16.4824 9.7 16.6684 9.628 16.8844 9.628C17.0644 9.628 17.1544 9.694 17.1544 9.826C17.1544 9.898 17.1244 9.988 17.0644 10.096C16.8844 10.504 16.7344 10.99 16.6144 11.554C16.4944 12.178 16.4344 12.658 16.4344 12.994C16.4584 13.57 16.6144 13.858 16.9024 13.858C17.1064 13.858 17.3104 13.792 17.5144 13.66C17.8864 13.432 18.5884 12.742 19.6204 11.59C20.2924 10.822 20.6884 10.438 20.8084 10.438C20.8684 10.438 20.8984 10.474 20.8984 10.546L20.9164 10.618C20.9164 10.69 20.8864 10.774 20.8264 10.87C20.4424 11.314 19.8004 12.022 18.9004 12.994C18.0364 13.93 17.3224 14.398 16.7584 14.398C16.0624 14.398 15.7144 13.834 15.7144 12.706C15.7144 12.334 15.7504 11.95 15.8224 11.554ZM20.5803 15.316L20.3823 15.262C20.1783 15.19 20.0763 14.806 20.0763 14.11L20.0943 13.786C20.1663 12.142 20.4123 10.684 20.8323 9.412C20.9883 8.836 21.1863 8.548 21.4263 8.548C21.4863 8.548 21.5463 8.566 21.6063 8.602C21.7383 8.698 21.8043 8.824 21.8043 8.98C21.8043 9.088 21.7563 9.274 21.6603 9.538C21.4083 10.318 21.2163 11.128 21.0843 11.968C20.9523 12.7 20.8863 13.306 20.8863 13.786C21.0543 13.642 21.2103 13.408 21.3543 13.084L21.4443 12.904C22.3563 11.044 23.3343 9.238 24.3783 7.486C24.7623 6.862 25.0323 6.55 25.1883 6.55C25.2603 6.55 25.3203 6.592 25.3683 6.676C25.4163 6.76 25.4403 6.832 25.4403 6.892C25.4403 7 25.3983 7.096 25.3143 7.18C24.8463 7.672 24.3423 8.47 23.8023 9.574L23.4063 10.384C22.9503 11.236 22.4043 12.334 21.7683 13.678C21.4203 14.398 21.1683 14.854 21.0123 15.046C20.8563 15.226 20.7123 15.316 20.5803 15.316ZM26.2084 14.002C25.3084 14.002 24.8164 13.564 24.7324 12.688C24.7324 11.86 24.9964 10.996 25.5244 10.096C26.0404 9.352 26.5204 8.98 26.9644 8.98C27.1924 8.98 27.3724 9.118 27.5044 9.394L27.5224 9.556C27.5224 9.82 27.3004 10.282 26.8564 10.942C26.5804 11.254 26.3584 11.452 26.1904 11.536C25.8544 11.692 25.6744 11.818 25.6504 11.914C25.5304 12.058 25.4704 12.274 25.4704 12.562C25.4704 13.126 25.7644 13.408 26.3524 13.408C27.0724 13.408 27.9844 13.042 29.0884 12.31C30.1924 11.578 30.9904 10.954 31.4824 10.438C31.5304 10.414 31.5844 10.402 31.6444 10.402C31.6804 10.402 31.7164 10.432 31.7524 10.492C31.7524 10.612 31.6804 10.738 31.5364 10.87C31.3204 11.206 30.7984 11.668 29.9704 12.256C28.4104 13.42 27.1564 14.002 26.2084 14.002ZM25.9204 10.906C26.4484 10.462 26.7724 10.078 26.8924 9.754C26.7124 9.838 26.4904 10.03 26.2264 10.33C26.0464 10.57 25.9444 10.762 25.9204 10.906ZM32.9042 18.7C32.8922 18.7 32.8142 18.694 32.6702 18.682C32.5262 18.682 32.3342 18.508 32.0942 18.16C31.9022 17.86 31.7582 17.476 31.6622 17.008C31.3982 15.82 31.2662 14.5 31.2662 13.048C31.2662 10.108 31.7402 7.318 32.6882 4.678C32.8322 4.234 32.9882 3.892 33.1562 3.652C33.3242 3.4 33.5402 3.274 33.8042 3.274L33.9842 3.292C34.4042 3.4 34.6142 3.694 34.6142 4.174C34.6142 4.39 34.5662 4.6 34.4702 4.804C34.1462 5.632 33.8882 6.478 33.6962 7.342C33.0482 10.174 32.7242 12.886 32.7242 15.478C32.7242 16.234 32.8142 16.918 32.9942 17.53C33.3542 17.11 33.6482 16.63 33.8762 16.09L35.0462 13.372C36.3182 10.372 37.2302 8.278 37.7822 7.09C38.9822 4.558 40.2482 2.674 41.5802 1.438L41.7062 1.312C41.9462 1.048 42.1502 0.915999 42.3182 0.915999C42.4142 0.915999 42.5162 0.945999 42.6242 1.006C42.8042 1.126 42.8942 1.27 42.8942 1.438C42.8942 1.45 42.8942 1.504 42.8942 1.6C42.8942 1.696 42.6482 2.518 42.1562 4.066C41.8802 4.942 41.6102 5.824 41.3462 6.712C40.6622 9.028 40.1882 11.38 39.9242 13.768C39.9002 13.972 39.8882 14.128 39.8882 14.236C39.8882 14.344 39.9122 14.458 39.9602 14.578C40.1402 14.458 40.5122 13.978 41.0762 13.138C41.7362 12.13 42.2702 11.44 42.6782 11.068C43.0382 10.732 43.3982 10.564 43.7582 10.564C44.1182 10.564 44.3522 10.81 44.4602 11.302C44.5442 11.686 44.6102 12.07 44.6582 12.454C44.8382 13.954 45.0602 15.022 45.3242 15.658C45.5642 16.234 45.8642 16.522 46.2242 16.522C46.4642 16.522 46.7462 16.408 47.0702 16.18C47.6462 15.796 48.2162 15.274 48.7802 14.614L51.3902 11.554C51.7622 11.086 51.9722 10.834 52.0202 10.798C52.0682 10.75 52.1102 10.702 52.1462 10.654C52.2542 10.498 52.3502 10.42 52.4342 10.42C52.4942 10.42 52.5542 10.45 52.6142 10.51C52.6742 10.558 52.7042 10.606 52.7042 10.654C52.7042 10.738 52.6382 10.828 52.5062 10.924L52.3622 11.05C51.7262 11.854 50.7482 13.06 49.4282 14.668C48.0842 16.336 47.0102 17.17 46.2062 17.17C45.7862 17.17 45.4202 16.966 45.1082 16.558C44.8082 16.162 44.5922 15.724 44.4602 15.244C44.2202 14.428 44.0402 13.354 43.9202 12.022L43.8842 11.518C43.8602 11.266 43.7762 11.14 43.6322 11.14C43.5362 11.14 43.4282 11.182 43.3082 11.266C42.9962 11.47 42.7022 11.788 42.4262 12.22C41.9222 13.024 41.4182 13.816 40.9142 14.596C40.4222 15.376 40.0442 15.766 39.7802 15.766C39.2642 15.766 39.0062 15.274 39.0062 14.29C39.0062 14.146 39.0122 14.008 39.0242 13.876C39.1562 11.404 39.5942 8.98 40.3382 6.604C40.7582 5.26 41.2382 3.91 41.7782 2.554C41.8982 2.326 41.9582 2.14 41.9582 1.996L41.9402 1.888C41.7482 1.984 41.5022 2.206 41.2022 2.554C40.2902 3.61 39.4802 4.87 38.7722 6.334C37.5842 8.71 36.3362 11.656 35.0282 15.172C34.7522 15.904 34.4702 16.624 34.1822 17.332C34.0502 17.656 33.8822 17.956 33.6782 18.232C33.4262 18.544 33.1682 18.7 32.9042 18.7ZM52.3813 11.716L52.4533 11.662C53.1613 11.134 53.6113 10.72 53.8033 10.42C53.1433 10.504 52.6693 10.936 52.3813 11.716ZM54.0373 11.554C53.9893 11.53 53.9473 11.518 53.9113 11.518C53.8273 11.518 53.6533 11.638 53.3893 11.878C52.6693 12.478 52.1833 12.778 51.9313 12.778C51.6073 12.778 51.4453 12.538 51.4453 12.058C51.4453 11.734 51.5833 11.356 51.8593 10.924C52.1113 10.54 52.4053 10.204 52.7413 9.916C53.1373 9.568 53.5093 9.394 53.8573 9.394C54.2413 9.394 54.4693 9.544 54.5413 9.844C54.6973 9.7 54.8833 9.628 55.0993 9.628C55.2793 9.628 55.3693 9.694 55.3693 9.826C55.3693 9.898 55.3393 9.988 55.2793 10.096C55.0993 10.504 54.9493 10.99 54.8293 11.554C54.7093 12.178 54.6493 12.658 54.6493 12.994C54.6733 13.57 54.8293 13.858 55.1173 13.858C55.3213 13.858 55.5253 13.792 55.7293 13.66C56.1013 13.432 56.8033 12.742 57.8353 11.59C58.5073 10.822 58.9033 10.438 59.0233 10.438C59.0833 10.438 59.1133 10.474 59.1133 10.546L59.1313 10.618C59.1313 10.69 59.1013 10.774 59.0413 10.87C58.6573 11.314 58.0153 12.022 57.1153 12.994C56.2513 13.93 55.5373 14.398 54.9733 14.398C54.2773 14.398 53.9293 13.834 53.9293 12.706C53.9293 12.334 53.9653 11.95 54.0373 11.554ZM62.0352 13.714C61.9392 13.714 61.7892 13.684 61.5852 13.624C61.2492 13.528 60.9552 13.114 60.7032 12.382C60.5232 11.938 60.3912 11.716 60.3072 11.716C60.1872 11.716 59.7912 12.1 59.1192 12.868L58.8852 13.138C58.7412 13.33 58.6092 13.426 58.4892 13.426C58.4292 13.426 58.3692 13.408 58.3092 13.372C58.1412 13.276 58.0572 13.144 58.0572 12.976C58.0572 12.832 58.0812 12.682 58.1292 12.526C58.3572 11.626 58.6632 10.744 59.0472 9.88C59.1792 9.556 59.3412 9.394 59.5332 9.394C59.8092 9.394 59.9472 9.532 59.9472 9.808C59.9472 10.024 59.8632 10.324 59.6952 10.708C59.5992 10.924 59.5272 11.164 59.4792 11.428C59.5872 11.416 59.7072 11.356 59.8392 11.248C60.0312 11.08 60.2292 10.996 60.4332 10.996C60.6972 10.996 60.9072 11.164 61.0632 11.5C61.1472 11.68 61.2312 11.908 61.3152 12.184C61.5312 12.844 61.8072 13.174 62.1432 13.174C62.3832 13.174 62.6772 13.03 63.0252 12.742C63.8652 12.082 64.6452 11.35 65.3652 10.546L65.4192 10.474C65.4792 10.39 65.5332 10.348 65.5812 10.348C65.6052 10.348 65.6352 10.366 65.6712 10.402C65.7192 10.438 65.7432 10.48 65.7432 10.528C65.7432 10.648 65.6052 10.864 65.3292 11.176C63.7572 12.868 62.6592 13.714 62.0352 13.714Z" fill="black"/>
</svg>
